<?xml version="1.0" encoding="UTF-8" standalone="no"?>
<!-- Created with Inkscape (http://www.inkscape.org/) -->

<svg
   xmlns:dc="http://purl.org/dc/elements/1.1/"
   xmlns:cc="http://creativecommons.org/ns#"
   xmlns:rdf="http://www.w3.org/1999/02/22-rdf-syntax-ns#"
   xmlns:svg="http://www.w3.org/2000/svg"
   xmlns="http://www.w3.org/2000/svg"
   xmlns:sodipodi="http://sodipodi.sourceforge.net/DTD/sodipodi-0.dtd"
   xmlns:inkscape="http://www.inkscape.org/namespaces/inkscape"
   width="210mm"
   height="297mm"
   id="svg2"
   version="1.1"
   inkscape:version="0.48.5 r10040"
   sodipodi:docname="G2Editor.svg">
  <defs
     id="defs4">
    <filter
       style="color-interpolation-filters:sRGB;"
       inkscape:label="Drop Shadow"
       id="filter3788">
      <feFlood
         flood-opacity="0.5"
         flood-color="rgb(0,0,0)"
         result="flood"
         id="feFlood3790" />
      <feComposite
         in="flood"
         in2="SourceGraphic"
         operator="in"
         result="composite1"
         id="feComposite3792" />
      <feGaussianBlur
         in="composite"
         stdDeviation="2"
         result="blur"
         id="feGaussianBlur3794" />
      <feOffset
         dx="4"
         dy="4"
         result="offset"
         id="feOffset3796" />
      <feComposite
         in="SourceGraphic"
         in2="offset"
         operator="over"
         result="composite2"
         id="feComposite3798" />
    </filter>
    <filter
       style="color-interpolation-filters:sRGB;"
       inkscape:label="Drop Shadow"
       id="filter3839">
      <feFlood
         flood-opacity="0.5"
         flood-color="rgb(0,0,0)"
         result="flood"
         id="feFlood3841" />
      <feComposite
         in="flood"
         in2="SourceGraphic"
         operator="in"
         result="composite1"
         id="feComposite3843" />
      <feGaussianBlur
         in="composite"
         stdDeviation="2"
         result="blur"
         id="feGaussianBlur3845" />
      <feOffset
         dx="4"
         dy="4"
         result="offset"
         id="feOffset3847" />
      <feComposite
         in="SourceGraphic"
         in2="offset"
         operator="over"
         result="composite2"
         id="feComposite3849" />
    </filter>
    <filter
       style="color-interpolation-filters:sRGB;"
       inkscape:label="Drop Shadow"
       id="filter3880">
      <feFlood
         flood-opacity="0.5"
         flood-color="rgb(0,0,0)"
         result="flood"
         id="feFlood3882" />
      <feComposite
         in="flood"
         in2="SourceGraphic"
         operator="in"
         result="composite1"
         id="feComposite3884" />
      <feGaussianBlur
         in="composite"
         stdDeviation="2"
         result="blur"
         id="feGaussianBlur3886" />
      <feOffset
         dx="4"
         dy="4"
         result="offset"
         id="feOffset3888" />
      <feComposite
         in="SourceGraphic"
         in2="offset"
         operator="over"
         result="composite2"
         id="feComposite3890" />
    </filter>
    <filter
       style="color-interpolation-filters:sRGB;"
       inkscape:label="Drop Shadow"
       id="filter3921">
      <feFlood
         flood-opacity="0.5"
         flood-color="rgb(0,0,0)"
         result="flood"
         id="feFlood3923" />
      <feComposite
         in="flood"
         in2="SourceGraphic"
         operator="in"
         result="composite1"
         id="feComposite3925" />
      <feGaussianBlur
         in="composite"
         stdDeviation="2"
         result="blur"
         id="feGaussianBlur3927" />
      <feOffset
         dx="4"
         dy="4"
         result="offset"
         id="feOffset3929" />
      <feComposite
         in="SourceGraphic"
         in2="offset"
         operator="over"
         result="composite2"
         id="feComposite3931" />
    </filter>
  </defs>
  <sodipodi:namedview
     id="base"
     pagecolor="#ffffff"
     bordercolor="#666666"
     borderopacity="1.0"
     inkscape:pageopacity="0.0"
     inkscape:pageshadow="2"
     inkscape:zoom="1"
     inkscape:cx="206"
     inkscape:cy="760"
     inkscape:document-units="px"
     inkscape:current-layer="layer1"
     showgrid="false"
     inkscape:window-width="1680"
     inkscape:window-height="987"
     inkscape:window-x="1272"
     inkscape:window-y="-8"
     inkscape:window-maximized="1" />
  <metadata
     id="metadata7">
    <rdf:RDF>
      <cc:Work
         rdf:about="">
        <dc:format>image/svg+xml</dc:format>
        <dc:type
           rdf:resource="http://purl.org/dc/dcmitype/StillImage" />
        <dc:title></dc:title>
      </cc:Work>
    </rdf:RDF>
  </metadata>
  <g
     inkscape:label="Laag 1"
     inkscape:groupmode="layer"
     id="layer1">
    <g
       style="font-size:56px;font-style:normal;font-variant:normal;font-weight:normal;font-stretch:normal;line-height:125%;letter-spacing:0px;word-spacing:0px;fill:#006680;fill-opacity:1;stroke:#55ddff;font-family:Nasalization;-inkscape-font-specification:Nasalization;stroke-width:2.39999999999999990;stroke-miterlimit:4;stroke-dasharray:none;filter:url(#filter3788)"
       id="text2985"
       inkscape:export-xdpi="89"
       inkscape:export-ydpi="89"
       inkscape:export-filename="D:\Crash20140412\Documenten\Delphi\nmg2editor\nmg2_editor_FMX\DXE10\Img\Incscape\LoadingGraphics.png">
      <path
         d="m 135.87231,181.76184 c -2.72527,0 -5.10532,-0.37341 -7.14013,-1.12024 -2.03484,-0.74682 -3.73357,-1.82007 -5.09619,-3.21973 -1.36264,-1.39965 -2.38917,-3.08898 -3.07959,-5.06799 -0.69044,-1.97899 -1.03565,-4.2001 -1.03565,-6.66333 l 0,-20.77612 7.83911,0 0,20.83252 c -1e-5,2.57602 0.72802,4.58265 2.18409,6.0199 1.45604,1.43726 3.50966,2.15589 6.16088,2.15588 l 11.53565,0 0,7.83911 z"
         style="stroke:#55ddff;fill:#006680;stroke-width:2.39999999999999990;stroke-miterlimit:4;stroke-dasharray:none"
         id="path2990" />
      <path
         d="m 166.45972,152.75354 c -2.50083,3e-5 -4.36733,0.85879 -5.59949,2.57629 -1.23219,1.71756 -1.84828,4.4243 -1.84827,8.12024 -10e-6,6.98178 2.46435,10.47267 7.39307,10.47266 l 5.9353,0 c 4.92755,1e-5 7.39133,-3.49088 7.39136,-10.47266 -3e-5,-3.69594 -0.61583,-6.40268 -1.84741,-8.12024 -1.23164,-1.7175 -3.09842,-2.57626 -5.60034,-2.57629 z m 1.56884,-7.83911 2.68824,0 c 11.12545,3e-5 16.74402,6.10395 16.85571,18.31177 l 0,0.16748 c -4e-5,12.24544 -5.60037,18.36816 -16.80103,18.36816 l -2.79931,0 c -11.19955,0 -16.79932,-6.12272 -16.79932,-18.36816 l 0,-0.16748 c 0.0365,-5.97345 1.45491,-10.49086 4.25537,-13.55225 2.87451,-3.17298 7.07461,-4.75949 12.60034,-4.75952 z"
         style="stroke:#55ddff;fill:#006680;stroke-width:2.39999999999999990;stroke-miterlimit:4;stroke-dasharray:none"
         id="path2992" />
      <path
         d="m 209.28174,152.80994 c -0.18687,2e-5 -0.35492,0.18687 -0.50415,0.56054 l -5.54395,15.51245 12.20728,0 -5.32007,-15.23217 c -0.33612,-0.56052 -0.5412,-0.8408 -0.61523,-0.84082 z m 8.90381,23.91211 -17.69654,0 -1.67993,5.03979 -8.34326,0 11.31177,-31.75122 c 0.63459,-1.75453 1.6238,-3.04253 2.96765,-3.86401 1.34381,-0.82142 2.89301,-1.23215 4.64758,-1.23218 1.79214,3e-5 3.35073,0.41076 4.67578,1.23218 1.32501,0.82148 2.3054,2.10948 2.94117,3.86401 l 11.31176,31.75122 -8.28857,0 z"
         style="stroke:#55ddff;fill:#006680;stroke-width:2.39999999999999990;stroke-miterlimit:4;stroke-dasharray:none"
         id="path2994" />
      <path
         d="m 239.46924,152.75354 0,21.16919 9.0166,0 c 2.50079,1e-5 4.36729,-0.85876 5.59949,-2.57629 1.23215,-1.71752 1.84824,-4.42427 1.84826,-8.12024 l 0,-0.44776 c -2e-5,-6.68324 -2.46438,-10.02487 -7.39306,-10.0249 z m -7.83911,-7.83911 15.34326,0 c 11.19951,3e-5 16.79928,6.12275 16.79932,18.36816 l 0,0.16748 c -0.11169,12.20785 -5.73026,18.31177 -16.85572,18.31177 l -15.28686,0 z"
         style="stroke:#55ddff;fill:#006680;stroke-width:2.39999999999999990;stroke-miterlimit:4;stroke-dasharray:none"
         id="path2996" />
      <path
         d="m 268.27075,181.76184 0,-36.84741 7.83911,0 0,36.84741 z"
         style="stroke:#55ddff;fill:#006680;stroke-width:2.39999999999999990;stroke-miterlimit:4;stroke-dasharray:none"
         id="path2998" />
      <path
         d="m 318.19189,171.96252 c -4e-5,1.41847 -0.25211,2.71559 -0.75622,3.89136 -0.50419,1.17579 -1.20402,2.1744 -2.09949,2.99585 -0.89554,0.82145 -1.94998,1.45634 -3.16333,1.90466 -1.21341,0.44833 -2.5111,0.67249 -3.89306,0.67249 -2.01549,0 -3.83528,-0.63489 -5.45936,-1.90466 -1.62412,-1.26978 -2.8093,-3.02462 -3.55554,-5.26453 l -6.77612,-20.15918 c -0.14927,-0.93308 -0.57879,-1.39963 -1.28857,-1.39966 -1.19517,3e-5 -1.79274,0.74629 -1.79273,2.23877 l 0,26.82422 -8.23047,0 0,-27.49585 c 0,-1.41843 0.25179,-2.71555 0.75537,-3.89136 0.50358,-1.17575 1.20341,-2.17436 2.09949,-2.99585 0.89607,-0.82141 1.9508,-1.4563 3.16418,-1.90466 1.21337,-0.44829 2.51049,-0.67245 3.89136,-0.67248 1.97899,3e-5 3.79934,0.63492 5.46106,1.90466 1.66168,1.26981 2.84686,3.02465 3.55554,5.26453 l -0.0564,0 6.83252,20.15917 c 0.14922,0.93312 0.57874,1.39967 1.28857,1.39966 1.19398,1e-5 1.79099,-0.74625 1.79102,-2.23877 l 0,-26.82422 8.23217,0 z"
         style="stroke:#55ddff;fill:#006680;stroke-width:2.39999999999999990;stroke-miterlimit:4;stroke-dasharray:none"
         id="path3000" />
      <path
         d="m 339.58154,181.76184 c -11.19955,0 -16.79932,-6.12272 -16.79931,-18.36816 l 0,-0.16748 c 0.11165,-12.20782 5.73021,-18.31174 16.85571,-18.31177 l 13.66333,0 0,7.83911 -15.23218,0 c -2.50083,3e-5 -4.36732,0.85879 -5.59949,2.57629 -1.23218,1.71756 -1.84827,4.4243 -1.84826,8.12024 l 0,0.44776 c -10e-6,6.68328 2.46434,10.02491 7.39306,10.0249 l 7.39136,-0.0564 c 0.82143,1e-5 1.52154,-0.33609 2.10034,-1.0083 0.57875,-0.67219 0.86814,-1.45604 0.86817,-2.35156 -3e-5,-0.89664 -0.28002,-1.68077 -0.83997,-2.35242 -0.56,-0.67162 -1.26951,-1.00743 -2.12854,-1.00744 l -6.43945,0 0,-7.84082 6.71973,0 c 1.49248,2e-5 2.87362,0.3082 4.14343,0.92456 1.26974,0.61639 2.38058,1.43784 3.33252,2.46435 0.95187,1.02655 1.69841,2.19321 2.23962,3.5 0.54114,1.30682 0.81173,2.65065 0.81177,4.0315 l 0,0.56054 c -4e-5,1.38087 -0.28942,2.7341 -0.86817,4.0597 -0.57881,1.3256 -1.35354,2.50167 -2.32421,3.52819 -0.97074,1.02653 -2.09069,1.8477 -3.35987,2.4635 -1.26923,0.61581 -2.61306,0.92371 -4.03149,0.92371 z"
         style="stroke:#55ddff;fill:#006680;stroke-width:2.39999999999999990;stroke-miterlimit:4;stroke-dasharray:none"
         id="path3002" />
      <path
         d="m 392.51904,181.76184 c -11.19955,0 -16.79932,-6.12272 -16.79931,-18.36816 l 0,-0.16748 c 0.11165,-12.20782 5.73021,-18.31174 16.85571,-18.31177 l 13.66333,0 0,7.83911 -15.23218,0 c -2.50083,3e-5 -4.36732,0.85879 -5.59949,2.57629 -1.23218,1.71756 -1.84827,4.4243 -1.84826,8.12024 l 0,0.44776 c -10e-6,6.68328 2.46434,10.02491 7.39306,10.0249 l 7.39136,-0.0564 c 0.82143,1e-5 1.52154,-0.33609 2.10034,-1.0083 0.57875,-0.67219 0.86814,-1.45604 0.86817,-2.35156 -3e-5,-0.89664 -0.28002,-1.68077 -0.83997,-2.35242 -0.56,-0.67162 -1.26951,-1.00743 -2.12854,-1.00744 l -6.43945,0 0,-7.84082 6.71973,0 c 1.49248,2e-5 2.87362,0.3082 4.14343,0.92456 1.26974,0.61639 2.38058,1.43784 3.33252,2.46435 0.95187,1.02655 1.69841,2.19321 2.23962,3.5 0.54114,1.30682 0.81173,2.65065 0.81177,4.0315 l 0,0.56054 c -4e-5,1.38087 -0.28942,2.7341 -0.86817,4.0597 -0.57881,1.3256 -1.35354,2.50167 -2.32421,3.52819 -0.97074,1.02653 -2.09069,1.8477 -3.35987,2.4635 -1.26923,0.61581 -2.61306,0.92371 -4.03149,0.92371 z"
         style="stroke:#55ddff;fill:#006680;stroke-width:2.39999999999999990;stroke-miterlimit:4;stroke-dasharray:none"
         id="path3004" />
      <path
         d="m 421.57861,152.75354 0,6.55225 11.42456,0 c 0.89549,2e-5 1.65143,-0.31728 2.26783,-0.95191 0.61635,-0.63458 0.92453,-1.41843 0.92456,-2.35156 -3e-5,-0.85902 -0.30821,-1.61525 -0.92456,-2.26868 -0.6164,-0.65337 -1.35354,-0.98007 -2.21143,-0.9801 z m 10.52735,-7.83911 c 2.09063,3e-5 3.89218,0.29854 5.40466,0.89551 1.51242,0.59704 2.754,1.39969 3.72473,2.40796 0.97067,1.00833 1.6799,2.19379 2.12769,3.55639 0.44772,1.36266 0.6716,2.80903 0.67163,4.33911 -3e-5,1.30683 -0.196,2.59512 -0.58789,3.86487 -0.39196,1.2698 -1.03596,2.42735 -1.93201,3.47266 -0.89611,1.04534 -2.04426,1.90382 -3.44446,2.57544 -1.40025,0.67164 -3.48122,1.04505 -6.24292,1.12024 l 12.48755,6.60693 0,9.40796 -22.73633,-13.83081 0,12.43115 -7.83911,0 0,-36.84741 z"
         style="stroke:#55ddff;fill:#006680;stroke-width:2.39999999999999990;stroke-miterlimit:4;stroke-dasharray:none"
         id="path3006" />
      <path
         d="m 465.65674,152.80994 c -0.18687,2e-5 -0.35492,0.18687 -0.50415,0.56054 l -5.54395,15.51245 12.20728,0 -5.32007,-15.23217 c -0.33612,-0.56052 -0.5412,-0.8408 -0.61523,-0.84082 z m 8.90381,23.91211 -17.69654,0 -1.67993,5.03979 -8.34326,0 11.31177,-31.75122 c 0.63459,-1.75453 1.6238,-3.04253 2.96765,-3.86401 1.34381,-0.82142 2.89301,-1.23215 4.64758,-1.23218 1.79214,3e-5 3.35073,0.41076 4.67578,1.23218 1.32501,0.82148 2.3054,2.10948 2.94117,3.86401 l 11.31176,31.75122 -8.28857,0 z"
         style="stroke:#55ddff;fill:#006680;stroke-width:2.39999999999999990;stroke-miterlimit:4;stroke-dasharray:none"
         id="path3008" />
      <path
         d="m 495.84424,152.75354 0,6.55225 11.42456,0 c 0.89548,2e-5 1.65142,-0.31728 2.26782,-0.95191 0.61635,-0.63458 0.92454,-1.41843 0.92456,-2.35156 -2e-5,-0.85902 -0.30821,-1.61525 -0.92456,-2.26868 -0.6164,-0.65337 -1.35354,-0.98007 -2.21142,-0.9801 z m 10.52734,-7.83911 c 2.09064,3e-5 3.89219,0.29854 5.40467,0.89551 1.51242,0.59704 2.75399,1.39969 3.72473,2.40796 0.97067,1.00833 1.6799,2.19379 2.12768,3.55639 0.44772,1.36266 0.6716,2.80903 0.67163,4.33911 -3e-5,1.34443 -0.21479,2.67003 -0.64428,3.97681 -0.42956,1.30682 -1.12027,2.48289 -2.07215,3.5282 -0.95193,1.04534 -2.18382,1.89471 -3.69568,2.54809 -1.5119,0.65342 -3.35077,0.98012 -5.5166,0.98011 l -10.52734,0 0,14.61523 -7.83911,0 0,-36.84741 z"
         style="stroke:#55ddff;fill:#006680;stroke-width:2.39999999999999990;stroke-miterlimit:4;stroke-dasharray:none"
         id="path3010" />
      <path
         d="m 545.24243,181.76184 0,-14.61523 -14.61694,0 0,14.61523 -7.83911,0 0,-36.84741 7.83911,0 0,14.39136 14.61694,0 0,-14.39136 7.83911,0 0,36.84741 z"
         style="stroke:#55ddff;fill:#006680;stroke-width:2.39999999999999990;stroke-miterlimit:4;stroke-dasharray:none"
         id="path3012" />
      <path
         d="m 558.1145,181.76184 0,-36.84741 7.83911,0 0,36.84741 z"
         style="stroke:#55ddff;fill:#006680;stroke-width:2.39999999999999990;stroke-miterlimit:4;stroke-dasharray:none"
         id="path3014" />
      <path
         d="m 600.97925,181.76184 -13.66333,0 c -11.19955,0 -16.79932,-6.12272 -16.79932,-18.36816 l 0,-0.16748 c 0.11165,-12.20782 5.73022,-18.31174 16.85571,-18.31177 l 13.66333,0 0,7.83911 -15.23217,0 c -2.50083,3e-5 -4.36733,0.85879 -5.59949,2.57629 -1.23219,1.71756 -1.84828,4.4243 -1.84827,8.12024 l 0,0.44776 c -1e-5,6.68328 2.46435,10.02491 7.39307,10.0249 l 15.23047,0 z"
         style="stroke:#55ddff;fill:#006680;stroke-width:2.39999999999999990;stroke-miterlimit:4;stroke-dasharray:none"
         id="path3016" />
      <path
         d="m 607.03247,173.92273 20.0481,0 c 0.85902,1e-5 1.55913,-0.32669 2.10034,-0.9801 0.54115,-0.6534 0.82114,-1.44693 0.83996,-2.38062 0.0188,-0.93366 -0.25181,-1.73631 -0.81176,-2.40796 -0.56001,-0.67162 -1.26952,-1.00743 -2.12854,-1.00744 l -9.91211,0 c -2.20233,1e-5 -4.05942,-0.33609 -5.57129,-1.0083 -1.51189,-0.67219 -2.74378,-1.53095 -3.69568,-2.5763 -0.95191,-1.04531 -1.63322,-2.22137 -2.04395,-3.5282 -0.41072,-1.30678 -0.61609,-2.66941 -0.61608,-4.08789 -10e-6,-1.41843 0.22387,-2.80897 0.67163,-4.17163 0.44775,-1.3626 1.14758,-2.54806 2.09948,-3.55639 0.9519,-1.00827 2.18408,-1.81092 3.69654,-2.40796 1.51244,-0.59697 3.33222,-0.89548 5.45935,-0.89551 l 18.36816,0 0,7.83911 -19.32007,0 c -0.85792,3e-5 -1.59506,0.32673 -2.21142,0.9801 -0.61639,0.65343 -0.92457,1.42817 -0.92456,2.32422 -10e-6,0.8961 0.30817,1.66144 0.92456,2.29602 0.61636,0.63463 1.3723,0.95193 2.26782,0.95191 l 9.74463,0 c 3.65834,2e-5 6.55165,0.94281 8.67993,2.82837 2.12822,1.88559 3.19235,4.68576 3.19238,8.40051 -3e-5,3.71477 -1.05476,6.51465 -3.16418,8.39966 -2.10949,1.88501 -5.04979,2.82751 -8.82092,2.82751 l -18.87232,0 z"
         style="stroke:#55ddff;fill:#006680;stroke-width:2.39999999999999990;stroke-miterlimit:4;stroke-dasharray:none"
         id="path3018" />
    </g>
    <g
       style="font-size:56px;font-style:normal;font-variant:normal;font-weight:normal;font-stretch:normal;line-height:125%;letter-spacing:0px;word-spacing:0px;fill:#006680;fill-opacity:1;stroke:#55ddff;font-family:Nasalization;-inkscape-font-specification:Nasalization;stroke-width:2.39999999999999990;stroke-miterlimit:4;stroke-dasharray:none;filter:url(#filter3839)"
       id="text3800"
       transform="translate(-38,17)"
       inkscape:export-filename="D:\Crash20140412\Documenten\Delphi\nmg2editor\nmg2_editor_FMX\DXE10\Img\RenderingGraphics.png"
       inkscape:export-xdpi="89"
       inkscape:export-ydpi="89">
      <path
         d="m 130.57544,245.39368 c 0,-3.62076 1.06412,-6.37393 3.19238,-8.25952 2.12825,-1.88556 5.02156,-2.82835 8.67993,-2.82837 l 7.39307,0 c 0.89549,2e-5 1.65114,-0.31728 2.26697,-0.95191 0.61578,-0.63458 0.92368,-1.39992 0.9237,-2.29602 -2e-5,-0.89605 -0.30792,-1.67079 -0.9237,-2.32422 -0.61583,-0.65337 -1.35326,-0.98007 -2.21228,-0.9801 l -19.32007,0 0,-7.83911 18.36816,0 c 2.09064,3e-5 3.89191,0.29854 5.40381,0.89551 1.51186,0.59704 2.75315,1.39969 3.72388,2.40796 0.97067,1.00833 1.68018,2.19379 2.12854,3.55639 0.44829,1.36266 0.67245,2.7626 0.67248,4.19983 -3e-5,1.43728 -0.21479,2.80931 -0.64428,4.11609 -0.42956,1.30682 -1.12027,2.48289 -2.07215,3.5282 -0.95193,1.04534 -2.18382,1.89471 -3.69567,2.54809 -1.51191,0.65342 -3.35078,0.98012 -5.51661,0.98011 l -3.75122,0 16.51905,6.9436 0,8.67993 -23.29517,-10.41626 0,9.40796 -7.84082,0 z"
         style="fill:#006680;stroke:#55ddff;stroke-width:2.39999999999999990;stroke-miterlimit:4;stroke-dasharray:none"
         id="path3805"
         inkscape:connector-curvature="0" />
      <path
         d="m 176.3728,242.14661 c -0.85792,1e-5 -1.59506,0.32671 -2.21142,0.9801 -0.61639,0.65341 -0.92457,1.45606 -0.92456,2.40796 -1e-5,0.95191 0.30817,1.75456 0.92456,2.40796 0.61636,0.65341 1.3723,0.98011 2.26782,0.9801 l 19.26367,0 0,7.83911 -18.36816,0 c -2.20233,0 -4.05942,-0.3267 -5.57129,-0.9801 -1.51189,-0.6534 -2.74378,-1.51188 -3.69568,-2.57544 -0.95191,-1.06356 -1.63322,-2.26753 -2.04395,-3.61194 -0.41072,-1.34439 -0.61609,-2.69791 -0.61608,-4.06055 -1e-5,-1.36262 0.27998,-2.68793 0.83996,-3.97595 0.55997,-1.28799 1.58679,-2.39854 3.08045,-3.33166 -1.64291,-0.97069 -2.70704,-2.10004 -3.19239,-3.38807 -0.48535,-1.28798 -0.72803,-2.86537 -0.72802,-4.73217 -1e-5,-1.86676 0.47594,-3.6028 1.42785,-5.20813 0.9519,-1.60528 2.19319,-2.83717 3.72388,-3.69568 1.53067,-0.85845 3.78909,-1.28769 6.77527,-1.28772 l 18.36816,0 0,7.83911 -19.32007,0 c -0.85792,3e-5 -1.59506,0.32673 -2.21142,0.9801 -0.61639,0.65343 -0.92457,1.42817 -0.92456,2.32422 -1e-5,0.8961 0.28937,1.66144 0.86816,2.29602 0.57877,0.63463 1.3535,0.95193 2.32422,0.95191 l 19.26367,0 0,7.84082 z"
         style="fill:#006680;stroke:#55ddff;stroke-width:2.39999999999999990;stroke-miterlimit:4;stroke-dasharray:none"
         id="path3807"
         inkscape:connector-curvature="0" />
      <path
         d="m 237.75439,246.96252 c -4e-5,1.41847 -0.25211,2.71559 -0.75622,3.89136 -0.50419,1.17579 -1.20402,2.1744 -2.09949,2.99585 -0.89554,0.82145 -1.94998,1.45634 -3.16333,1.90466 -1.21341,0.44833 -2.5111,0.67249 -3.89306,0.67249 -2.01549,0 -3.83528,-0.63489 -5.45936,-1.90466 -1.62412,-1.26978 -2.8093,-3.02462 -3.55554,-5.26453 l -6.77612,-20.15918 c -0.14927,-0.93308 -0.57879,-1.39963 -1.28857,-1.39966 -1.19517,3e-5 -1.79274,0.74629 -1.79273,2.23877 l 0,26.82422 -8.23047,0 0,-27.49585 c 0,-1.41843 0.25179,-2.71555 0.75537,-3.89136 0.50358,-1.17575 1.20341,-2.17436 2.09949,-2.99585 0.89607,-0.82141 1.9508,-1.4563 3.16418,-1.90466 1.21337,-0.44829 2.51049,-0.67245 3.89136,-0.67248 1.97899,3e-5 3.79934,0.63492 5.46106,1.90466 1.66168,1.26981 2.84686,3.02465 3.55554,5.26453 l -0.0564,0 6.83252,20.15917 c 0.14922,0.93312 0.57874,1.39967 1.28857,1.39966 1.19398,1e-5 1.79099,-0.74625 1.79102,-2.23877 l 0,-26.82422 8.23217,0 z"
         style="fill:#006680;stroke:#55ddff;stroke-width:2.39999999999999990;stroke-miterlimit:4;stroke-dasharray:none"
         id="path3809"
         inkscape:connector-curvature="0" />
      <path
         d="m 250.68799,227.75354 0,21.16919 9.0166,0 c 2.50079,1e-5 4.36729,-0.85876 5.59949,-2.57629 1.23215,-1.71752 1.84824,-4.42427 1.84826,-8.12024 l 0,-0.44776 c -2e-5,-6.68324 -2.46438,-10.02487 -7.39306,-10.0249 z m -7.83911,-7.83911 15.34326,0 c 11.19951,3e-5 16.79928,6.12275 16.79932,18.36816 l 0,0.16748 c -0.11169,12.20785 -5.73026,18.31177 -16.85572,18.31177 l -15.28686,0 z"
         style="fill:#006680;stroke:#55ddff;stroke-width:2.39999999999999990;stroke-miterlimit:4;stroke-dasharray:none"
         id="path3811"
         inkscape:connector-curvature="0" />
      <path
         d="m 289.90405,242.14661 c -0.85792,1e-5 -1.59506,0.32671 -2.21142,0.9801 -0.61639,0.65341 -0.92457,1.45606 -0.92456,2.40796 -1e-5,0.95191 0.30817,1.75456 0.92456,2.40796 0.61636,0.65341 1.3723,0.98011 2.26782,0.9801 l 19.26367,0 0,7.83911 -18.36816,0 c -2.20233,0 -4.05942,-0.3267 -5.57129,-0.9801 -1.51189,-0.6534 -2.74378,-1.51188 -3.69568,-2.57544 -0.95191,-1.06356 -1.63322,-2.26753 -2.04395,-3.61194 -0.41072,-1.34439 -0.61609,-2.69791 -0.61608,-4.06055 -1e-5,-1.36262 0.27998,-2.68793 0.83996,-3.97595 0.55997,-1.28799 1.58679,-2.39854 3.08045,-3.33166 -1.64291,-0.97069 -2.70704,-2.10004 -3.19239,-3.38807 -0.48535,-1.28798 -0.72803,-2.86537 -0.72802,-4.73217 -1e-5,-1.86676 0.47594,-3.6028 1.42785,-5.20813 0.9519,-1.60528 2.19319,-2.83717 3.72388,-3.69568 1.53067,-0.85845 3.78909,-1.28769 6.77527,-1.28772 l 18.36816,0 0,7.83911 -19.32007,0 c -0.85792,3e-5 -1.59506,0.32673 -2.21142,0.9801 -0.61639,0.65343 -0.92457,1.42817 -0.92456,2.32422 -1e-5,0.8961 0.28937,1.66144 0.86816,2.29602 0.57877,0.63463 1.3535,0.95193 2.32422,0.95191 l 19.26367,0 0,7.84082 z"
         style="fill:#006680;stroke:#55ddff;stroke-width:2.39999999999999990;stroke-miterlimit:4;stroke-dasharray:none"
         id="path3813"
         inkscape:connector-curvature="0" />
      <path
         d="m 322.10986,227.75354 0,6.55225 11.42456,0 c 0.89549,2e-5 1.65143,-0.31728 2.26783,-0.95191 0.61635,-0.63458 0.92453,-1.41843 0.92456,-2.35156 -3e-5,-0.85902 -0.30821,-1.61525 -0.92456,-2.26868 -0.6164,-0.65337 -1.35354,-0.98007 -2.21143,-0.9801 z m 10.52735,-7.83911 c 2.09063,3e-5 3.89218,0.29854 5.40466,0.89551 1.51242,0.59704 2.754,1.39969 3.72473,2.40796 0.97067,1.00833 1.6799,2.19379 2.12769,3.55639 0.44772,1.36266 0.6716,2.80903 0.67163,4.33911 -3e-5,1.30683 -0.196,2.59512 -0.58789,3.86487 -0.39196,1.2698 -1.03596,2.42735 -1.93201,3.47266 -0.89611,1.04534 -2.04426,1.90382 -3.44446,2.57544 -1.40025,0.67164 -3.48122,1.04505 -6.24292,1.12024 l 12.48755,6.60693 0,9.40796 -22.73633,-13.83081 0,12.43115 -7.83911,0 0,-36.84741 z"
         style="fill:#006680;stroke:#55ddff;stroke-width:2.39999999999999990;stroke-miterlimit:4;stroke-dasharray:none"
         id="path3815"
         inkscape:connector-curvature="0" />
      <path
         d="m 349.052,256.76184 0,-36.84741 7.83911,0 0,36.84741 z"
         style="fill:#006680;stroke:#55ddff;stroke-width:2.39999999999999990;stroke-miterlimit:4;stroke-dasharray:none"
         id="path3817"
         inkscape:connector-curvature="0" />
      <path
         d="m 398.97314,246.96252 c -4e-5,1.41847 -0.25211,2.71559 -0.75622,3.89136 -0.50419,1.17579 -1.20402,2.1744 -2.09949,2.99585 -0.89554,0.82145 -1.94998,1.45634 -3.16333,1.90466 -1.21341,0.44833 -2.5111,0.67249 -3.89306,0.67249 -2.01549,0 -3.83528,-0.63489 -5.45936,-1.90466 -1.62412,-1.26978 -2.8093,-3.02462 -3.55554,-5.26453 l -6.77612,-20.15918 c -0.14927,-0.93308 -0.57879,-1.39963 -1.28857,-1.39966 -1.19517,3e-5 -1.79274,0.74629 -1.79273,2.23877 l 0,26.82422 -8.23047,0 0,-27.49585 c 0,-1.41843 0.25179,-2.71555 0.75537,-3.89136 0.50358,-1.17575 1.20341,-2.17436 2.09949,-2.99585 0.89607,-0.82141 1.9508,-1.4563 3.16418,-1.90466 1.21337,-0.44829 2.51049,-0.67245 3.89136,-0.67248 1.97899,3e-5 3.79934,0.63492 5.46106,1.90466 1.66168,1.26981 2.84686,3.02465 3.55554,5.26453 l -0.0564,0 6.83252,20.15917 c 0.14922,0.93312 0.57874,1.39967 1.28857,1.39966 1.19398,1e-5 1.79099,-0.74625 1.79102,-2.23877 l 0,-26.82422 8.23217,0 z"
         style="fill:#006680;stroke:#55ddff;stroke-width:2.39999999999999990;stroke-miterlimit:4;stroke-dasharray:none"
         id="path3819"
         inkscape:connector-curvature="0" />
      <path
         d="m 420.36279,256.76184 c -11.19955,0 -16.79932,-6.12272 -16.79931,-18.36816 l 0,-0.16748 c 0.11165,-12.20782 5.73021,-18.31174 16.85571,-18.31177 l 13.66333,0 0,7.83911 -15.23218,0 c -2.50083,3e-5 -4.36732,0.85879 -5.59949,2.57629 -1.23218,1.71756 -1.84827,4.4243 -1.84826,8.12024 l 0,0.44776 c -10e-6,6.68328 2.46434,10.02491 7.39306,10.0249 l 7.39136,-0.0564 c 0.82143,1e-5 1.52154,-0.33609 2.10034,-1.0083 0.57875,-0.67219 0.86814,-1.45604 0.86817,-2.35156 -3e-5,-0.89664 -0.28002,-1.68077 -0.83997,-2.35242 -0.56,-0.67162 -1.26951,-1.00743 -2.12854,-1.00744 l -6.43945,0 0,-7.84082 6.71973,0 c 1.49248,2e-5 2.87362,0.3082 4.14343,0.92456 1.26974,0.61639 2.38058,1.43784 3.33252,2.46435 0.95187,1.02655 1.69841,2.19321 2.23962,3.5 0.54114,1.30682 0.81173,2.65065 0.81177,4.0315 l 0,0.56054 c -4e-5,1.38087 -0.28942,2.7341 -0.86817,4.0597 -0.57881,1.3256 -1.35354,2.50167 -2.32421,3.52819 -0.97074,1.02653 -2.09069,1.8477 -3.35987,2.4635 -1.26923,0.61581 -2.61306,0.92371 -4.03149,0.92371 z"
         style="fill:#006680;stroke:#55ddff;stroke-width:2.39999999999999990;stroke-miterlimit:4;stroke-dasharray:none"
         id="path3821"
         inkscape:connector-curvature="0" />
      <path
         d="m 473.30029,256.76184 c -11.19955,0 -16.79932,-6.12272 -16.79931,-18.36816 l 0,-0.16748 c 0.11165,-12.20782 5.73021,-18.31174 16.85571,-18.31177 l 13.66333,0 0,7.83911 -15.23218,0 c -2.50083,3e-5 -4.36732,0.85879 -5.59949,2.57629 -1.23218,1.71756 -1.84827,4.4243 -1.84826,8.12024 l 0,0.44776 c -10e-6,6.68328 2.46434,10.02491 7.39306,10.0249 l 7.39136,-0.0564 c 0.82143,1e-5 1.52154,-0.33609 2.10034,-1.0083 0.57875,-0.67219 0.86814,-1.45604 0.86817,-2.35156 -3e-5,-0.89664 -0.28002,-1.68077 -0.83997,-2.35242 -0.56,-0.67162 -1.26951,-1.00743 -2.12854,-1.00744 l -6.43945,0 0,-7.84082 6.71973,0 c 1.49248,2e-5 2.87362,0.3082 4.14343,0.92456 1.26974,0.61639 2.38058,1.43784 3.33252,2.46435 0.95187,1.02655 1.69841,2.19321 2.23962,3.5 0.54114,1.30682 0.81173,2.65065 0.81177,4.0315 l 0,0.56054 c -4e-5,1.38087 -0.28942,2.7341 -0.86817,4.0597 -0.57881,1.3256 -1.35354,2.50167 -2.32421,3.52819 -0.97074,1.02653 -2.09069,1.8477 -3.35987,2.4635 -1.26923,0.61581 -2.61306,0.92371 -4.03149,0.92371 z"
         style="fill:#006680;stroke:#55ddff;stroke-width:2.39999999999999990;stroke-miterlimit:4;stroke-dasharray:none"
         id="path3823"
         inkscape:connector-curvature="0" />
      <path
         d="m 502.35986,227.75354 0,6.55225 11.42456,0 c 0.89549,2e-5 1.65143,-0.31728 2.26783,-0.95191 0.61635,-0.63458 0.92453,-1.41843 0.92456,-2.35156 -3e-5,-0.85902 -0.30821,-1.61525 -0.92456,-2.26868 -0.6164,-0.65337 -1.35354,-0.98007 -2.21143,-0.9801 z m 10.52735,-7.83911 c 2.09063,3e-5 3.89218,0.29854 5.40466,0.89551 1.51242,0.59704 2.754,1.39969 3.72473,2.40796 0.97067,1.00833 1.6799,2.19379 2.12769,3.55639 0.44772,1.36266 0.6716,2.80903 0.67163,4.33911 -3e-5,1.30683 -0.196,2.59512 -0.58789,3.86487 -0.39196,1.2698 -1.03596,2.42735 -1.93201,3.47266 -0.89611,1.04534 -2.04426,1.90382 -3.44446,2.57544 -1.40025,0.67164 -3.48122,1.04505 -6.24292,1.12024 l 12.48755,6.60693 0,9.40796 -22.73633,-13.83081 0,12.43115 -7.83911,0 0,-36.84741 z"
         style="fill:#006680;stroke:#55ddff;stroke-width:2.39999999999999990;stroke-miterlimit:4;stroke-dasharray:none"
         id="path3825"
         inkscape:connector-curvature="0" />
      <path
         d="m 546.43799,227.80994 c -0.18687,2e-5 -0.35492,0.18687 -0.50415,0.56054 l -5.54395,15.51245 12.20728,0 -5.32007,-15.23217 c -0.33612,-0.56052 -0.5412,-0.8408 -0.61523,-0.84082 z m 8.90381,23.91211 -17.69654,0 -1.67993,5.03979 -8.34326,0 11.31177,-31.75122 c 0.63459,-1.75453 1.6238,-3.04253 2.96765,-3.86401 1.34381,-0.82142 2.89301,-1.23215 4.64758,-1.23218 1.79214,3e-5 3.35073,0.41076 4.67578,1.23218 1.32501,0.82148 2.3054,2.10948 2.94117,3.86401 l 11.31176,31.75122 -8.28857,0 z"
         style="fill:#006680;stroke:#55ddff;stroke-width:2.39999999999999990;stroke-miterlimit:4;stroke-dasharray:none"
         id="path3827"
         inkscape:connector-curvature="0" />
      <path
         d="m 576.62549,227.75354 0,6.55225 11.42456,0 c 0.89548,2e-5 1.65142,-0.31728 2.26782,-0.95191 0.61635,-0.63458 0.92454,-1.41843 0.92456,-2.35156 -2e-5,-0.85902 -0.30821,-1.61525 -0.92456,-2.26868 -0.6164,-0.65337 -1.35354,-0.98007 -2.21142,-0.9801 z m 10.52734,-7.83911 c 2.09064,3e-5 3.89219,0.29854 5.40467,0.89551 1.51242,0.59704 2.75399,1.39969 3.72473,2.40796 0.97067,1.00833 1.6799,2.19379 2.12768,3.55639 0.44772,1.36266 0.6716,2.80903 0.67163,4.33911 -3e-5,1.34443 -0.21479,2.67003 -0.64428,3.97681 -0.42956,1.30682 -1.12027,2.48289 -2.07215,3.5282 -0.95193,1.04534 -2.18382,1.89471 -3.69568,2.54809 -1.5119,0.65342 -3.35077,0.98012 -5.5166,0.98011 l -10.52734,0 0,14.61523 -7.83911,0 0,-36.84741 z"
         style="fill:#006680;stroke:#55ddff;stroke-width:2.39999999999999990;stroke-miterlimit:4;stroke-dasharray:none"
         id="path3829"
         inkscape:connector-curvature="0" />
      <path
         d="m 626.02368,256.76184 0,-14.61523 -14.61694,0 0,14.61523 -7.83911,0 0,-36.84741 7.83911,0 0,14.39136 14.61694,0 0,-14.39136 7.83911,0 0,36.84741 z"
         style="fill:#006680;stroke:#55ddff;stroke-width:2.39999999999999990;stroke-miterlimit:4;stroke-dasharray:none"
         id="path3831"
         inkscape:connector-curvature="0" />
      <path
         d="m 638.89575,256.76184 0,-36.84741 7.83911,0 0,36.84741 z"
         style="fill:#006680;stroke:#55ddff;stroke-width:2.39999999999999990;stroke-miterlimit:4;stroke-dasharray:none"
         id="path3833"
         inkscape:connector-curvature="0" />
      <path
         d="m 681.7605,256.76184 -13.66333,0 c -11.19955,0 -16.79932,-6.12272 -16.79932,-18.36816 l 0,-0.16748 c 0.11165,-12.20782 5.73022,-18.31174 16.85571,-18.31177 l 13.66333,0 0,7.83911 -15.23217,0 c -2.50083,3e-5 -4.36733,0.85879 -5.59949,2.57629 -1.23219,1.71756 -1.84828,4.4243 -1.84827,8.12024 l 0,0.44776 c -1e-5,6.68328 2.46435,10.02491 7.39307,10.0249 l 15.23047,0 z"
         style="fill:#006680;stroke:#55ddff;stroke-width:2.39999999999999990;stroke-miterlimit:4;stroke-dasharray:none"
         id="path3835"
         inkscape:connector-curvature="0" />
      <path
         d="m 687.81372,248.92273 20.0481,0 c 0.85902,1e-5 1.55913,-0.32669 2.10034,-0.9801 0.54115,-0.6534 0.82114,-1.44693 0.83996,-2.38062 0.0188,-0.93366 -0.25181,-1.73631 -0.81176,-2.40796 -0.56001,-0.67162 -1.26952,-1.00743 -2.12854,-1.00744 l -9.91211,0 c -2.20233,1e-5 -4.05942,-0.33609 -5.57129,-1.0083 -1.51189,-0.67219 -2.74378,-1.53095 -3.69568,-2.5763 -0.95191,-1.04531 -1.63322,-2.22137 -2.04395,-3.5282 -0.41072,-1.30678 -0.61609,-2.66941 -0.61608,-4.08789 -10e-6,-1.41843 0.22387,-2.80897 0.67163,-4.17163 0.44775,-1.3626 1.14758,-2.54806 2.09948,-3.55639 0.9519,-1.00827 2.18408,-1.81092 3.69654,-2.40796 1.51244,-0.59697 3.33222,-0.89548 5.45935,-0.89551 l 18.36816,0 0,7.83911 -19.32007,0 c -0.85792,3e-5 -1.59506,0.32673 -2.21142,0.9801 -0.61639,0.65343 -0.92457,1.42817 -0.92456,2.32422 -10e-6,0.8961 0.30817,1.66144 0.92456,2.29602 0.61636,0.63463 1.3723,0.95193 2.26782,0.95191 l 9.74463,0 c 3.65834,2e-5 6.55165,0.94281 8.67993,2.82837 2.12822,1.88559 3.19235,4.68576 3.19238,8.40051 -3e-5,3.71477 -1.05476,6.51465 -3.16418,8.39966 -2.10949,1.88501 -5.04979,2.82751 -8.82092,2.82751 l -18.87232,0 z"
         style="fill:#006680;stroke:#55ddff;stroke-width:2.39999999999999990;stroke-miterlimit:4;stroke-dasharray:none"
         id="path3837"
         inkscape:connector-curvature="0" />
    </g>
    <g
       style="font-size:56px;font-style:normal;font-variant:normal;font-weight:normal;font-stretch:normal;line-height:125%;letter-spacing:0px;word-spacing:0px;fill:#006680;fill-opacity:1;stroke:#55ddff;stroke-width:2.4000001;stroke-miterlimit:4;stroke-dasharray:none;filter:url(#filter3880);font-family:Nasalization;-inkscape-font-specification:Nasalization"
       id="text3851"
       transform="translate(-12,107)"
       inkscape:export-filename="D:\Crash20140412\Documenten\Delphi\nmg2editor\nmg2_editor_FMX\DXE10\Img\LoadingPatch.png"
       inkscape:export-xdpi="89"
       inkscape:export-ydpi="89">
      <path
         d="m 195.87231,361.76184 c -2.72527,0 -5.10532,-0.37341 -7.14013,-1.12024 -2.03484,-0.74682 -3.73357,-1.82007 -5.09619,-3.21973 -1.36264,-1.39965 -2.38917,-3.08898 -3.07959,-5.06799 -0.69044,-1.97899 -1.03565,-4.2001 -1.03565,-6.66333 l 0,-20.77612 7.83911,0 0,20.83252 c -1e-5,2.57602 0.72802,4.58265 2.18409,6.0199 1.45604,1.43726 3.50966,2.15589 6.16088,2.15588 l 11.53565,0 0,7.83911 z"
         id="path3856"
         inkscape:connector-curvature="0"
         style="fill:#006680;stroke:#55ddff;stroke-width:2.4000001;stroke-miterlimit:4;stroke-dasharray:none" />
      <path
         d="m 226.45972,332.75354 c -2.50083,3e-5 -4.36733,0.85879 -5.59949,2.57629 -1.23219,1.71756 -1.84828,4.4243 -1.84827,8.12024 -10e-6,6.98178 2.46435,10.47267 7.39307,10.47266 l 5.9353,0 c 4.92755,10e-6 7.39133,-3.49088 7.39136,-10.47266 -3e-5,-3.69594 -0.61583,-6.40268 -1.84741,-8.12024 -1.23164,-1.7175 -3.09842,-2.57626 -5.60034,-2.57629 z m 1.56884,-7.83911 2.68824,0 c 11.12545,3e-5 16.74402,6.10395 16.85571,18.31177 l 0,0.16748 c -4e-5,12.24544 -5.60037,18.36816 -16.80103,18.36816 l -2.79931,0 c -11.19955,0 -16.79932,-6.12272 -16.79932,-18.36816 l 0,-0.16748 c 0.0365,-5.97345 1.45491,-10.49086 4.25537,-13.55225 2.87451,-3.17298 7.07461,-4.75949 12.60034,-4.75952 z"
         id="path3858"
         inkscape:connector-curvature="0"
         style="fill:#006680;stroke:#55ddff;stroke-width:2.4000001;stroke-miterlimit:4;stroke-dasharray:none" />
      <path
         d="m 269.28174,332.80994 c -0.18687,2e-5 -0.35492,0.18687 -0.50415,0.56054 l -5.54395,15.51245 12.20728,0 -5.32007,-15.23217 c -0.33612,-0.56052 -0.5412,-0.8408 -0.61523,-0.84082 z m 8.90381,23.91211 -17.69654,0 -1.67993,5.03979 -8.34326,0 11.31177,-31.75122 c 0.63459,-1.75453 1.6238,-3.04253 2.96765,-3.86401 1.34381,-0.82142 2.89301,-1.23215 4.64758,-1.23218 1.79214,3e-5 3.35073,0.41076 4.67578,1.23218 1.32501,0.82148 2.3054,2.10948 2.94117,3.86401 l 11.31176,31.75122 -8.28857,0 z"
         id="path3860"
         inkscape:connector-curvature="0"
         style="fill:#006680;stroke:#55ddff;stroke-width:2.4000001;stroke-miterlimit:4;stroke-dasharray:none" />
      <path
         d="m 299.46924,332.75354 0,21.16919 9.0166,0 c 2.50079,10e-6 4.36729,-0.85876 5.59949,-2.57629 1.23215,-1.71752 1.84824,-4.42427 1.84826,-8.12024 l 0,-0.44776 c -2e-5,-6.68324 -2.46438,-10.02487 -7.39306,-10.0249 z m -7.83911,-7.83911 15.34326,0 c 11.19951,3e-5 16.79928,6.12275 16.79932,18.36816 l 0,0.16748 c -0.11169,12.20785 -5.73026,18.31177 -16.85572,18.31177 l -15.28686,0 z"
         id="path3862"
         inkscape:connector-curvature="0"
         style="fill:#006680;stroke:#55ddff;stroke-width:2.4000001;stroke-miterlimit:4;stroke-dasharray:none" />
      <path
         d="m 328.27075,361.76184 0,-36.84741 7.83911,0 0,36.84741 z"
         id="path3864"
         inkscape:connector-curvature="0"
         style="fill:#006680;stroke:#55ddff;stroke-width:2.4000001;stroke-miterlimit:4;stroke-dasharray:none" />
      <path
         d="m 378.19189,351.96252 c -4e-5,1.41847 -0.25211,2.71559 -0.75622,3.89136 -0.50419,1.17579 -1.20402,2.1744 -2.09949,2.99585 -0.89554,0.82145 -1.94998,1.45634 -3.16333,1.90466 -1.21341,0.44833 -2.5111,0.67249 -3.89306,0.67249 -2.01549,0 -3.83528,-0.63489 -5.45936,-1.90466 -1.62412,-1.26978 -2.8093,-3.02462 -3.55554,-5.26453 l -6.77612,-20.15918 c -0.14927,-0.93308 -0.57879,-1.39963 -1.28857,-1.39966 -1.19517,3e-5 -1.79274,0.74629 -1.79273,2.23877 l 0,26.82422 -8.23047,0 0,-27.49585 c 0,-1.41843 0.25179,-2.71555 0.75537,-3.89136 0.50358,-1.17575 1.20341,-2.17436 2.09949,-2.99585 0.89607,-0.82141 1.9508,-1.4563 3.16418,-1.90466 1.21337,-0.44829 2.51049,-0.67245 3.89136,-0.67248 1.97899,3e-5 3.79934,0.63492 5.46106,1.90466 1.66168,1.26981 2.84686,3.02465 3.55554,5.26453 l -0.0564,0 6.83252,20.15917 c 0.14922,0.93312 0.57874,1.39967 1.28857,1.39966 1.19398,1e-5 1.79099,-0.74625 1.79102,-2.23877 l 0,-26.82422 8.23217,0 z"
         id="path3866"
         inkscape:connector-curvature="0"
         style="fill:#006680;stroke:#55ddff;stroke-width:2.4000001;stroke-miterlimit:4;stroke-dasharray:none" />
      <path
         d="m 399.58154,361.76184 c -11.19955,0 -16.79932,-6.12272 -16.79931,-18.36816 l 0,-0.16748 c 0.11165,-12.20782 5.73021,-18.31174 16.85571,-18.31177 l 13.66333,0 0,7.83911 -15.23218,0 c -2.50083,3e-5 -4.36732,0.85879 -5.59949,2.57629 -1.23218,1.71756 -1.84827,4.4243 -1.84826,8.12024 l 0,0.44776 c -10e-6,6.68328 2.46434,10.02491 7.39306,10.0249 l 7.39136,-0.0564 c 0.82143,10e-6 1.52154,-0.33609 2.10034,-1.0083 0.57875,-0.67219 0.86814,-1.45604 0.86817,-2.35156 -3e-5,-0.89664 -0.28002,-1.68077 -0.83997,-2.35242 -0.56,-0.67162 -1.26951,-1.00743 -2.12854,-1.00744 l -6.43945,0 0,-7.84082 6.71973,0 c 1.49248,2e-5 2.87362,0.3082 4.14343,0.92456 1.26974,0.61639 2.38058,1.43784 3.33252,2.46435 0.95187,1.02655 1.69841,2.19321 2.23962,3.5 0.54114,1.30682 0.81173,2.65065 0.81177,4.0315 l 0,0.56054 c -4e-5,1.38087 -0.28942,2.7341 -0.86817,4.0597 -0.57881,1.3256 -1.35354,2.50167 -2.32421,3.52819 -0.97074,1.02653 -2.09069,1.8477 -3.35987,2.4635 -1.26923,0.61581 -2.61306,0.92371 -4.03149,0.92371 z"
         id="path3868"
         inkscape:connector-curvature="0"
         style="fill:#006680;stroke:#55ddff;stroke-width:2.4000001;stroke-miterlimit:4;stroke-dasharray:none" />
      <path
         d="m 444.06299,332.75354 0,6.55225 11.42456,0 c 0.89548,2e-5 1.65142,-0.31728 2.26782,-0.95191 0.61635,-0.63458 0.92454,-1.41843 0.92456,-2.35156 -2e-5,-0.85902 -0.30821,-1.61525 -0.92456,-2.26868 -0.6164,-0.65337 -1.35354,-0.98007 -2.21142,-0.9801 z m 10.52734,-7.83911 c 2.09064,3e-5 3.89219,0.29854 5.40467,0.89551 1.51242,0.59704 2.75399,1.39969 3.72473,2.40796 0.97067,1.00833 1.6799,2.19379 2.12768,3.55639 0.44772,1.36266 0.6716,2.80903 0.67163,4.33911 -3e-5,1.34443 -0.21479,2.67003 -0.64428,3.97681 -0.42956,1.30682 -1.12027,2.48289 -2.07215,3.5282 -0.95193,1.04534 -2.18382,1.89471 -3.69568,2.54809 -1.5119,0.65342 -3.35077,0.98012 -5.5166,0.98011 l -10.52734,0 0,14.61523 -7.83911,0 0,-36.84741 z"
         id="path3870"
         inkscape:connector-curvature="0"
         style="fill:#006680;stroke:#55ddff;stroke-width:2.4000001;stroke-miterlimit:4;stroke-dasharray:none" />
      <path
         d="m 488.14111,332.80994 c -0.18687,2e-5 -0.35492,0.18687 -0.50415,0.56054 l -5.54394,15.51245 12.20727,0 -5.32007,-15.23217 c -0.33612,-0.56052 -0.54119,-0.8408 -0.61523,-0.84082 z m 8.90381,23.91211 -17.69653,0 -1.67993,5.03979 -8.34326,0 11.31176,-31.75122 c 0.63459,-1.75453 1.62381,-3.04253 2.96765,-3.86401 1.34382,-0.82142 2.89301,-1.23215 4.64759,-1.23218 1.79213,3e-5 3.35072,0.41076 4.67578,1.23218 1.32501,0.82148 2.30539,2.10948 2.94116,3.86401 l 11.31177,31.75122 -8.28858,0 z"
         id="path3872"
         inkscape:connector-curvature="0"
         style="fill:#006680;stroke:#55ddff;stroke-width:2.4000001;stroke-miterlimit:4;stroke-dasharray:none" />
      <path
         d="m 525.88916,332.75354 0,29.0083 -7.84082,0 0,-29.0083 -8.67993,0 0,-7.83911 24.69653,0 0,7.83911 z"
         id="path3874"
         inkscape:connector-curvature="0"
         style="fill:#006680;stroke:#55ddff;stroke-width:2.4000001;stroke-miterlimit:4;stroke-dasharray:none" />
      <path
         d="m 567.90112,361.76184 -13.66333,0 c -11.19955,0 -16.79932,-6.12272 -16.79931,-18.36816 l 0,-0.16748 c 0.11165,-12.20782 5.73021,-18.31174 16.85571,-18.31177 l 13.66333,0 0,7.83911 -15.23218,0 c -2.50083,3e-5 -4.36732,0.85879 -5.59949,2.57629 -1.23218,1.71756 -1.84827,4.4243 -1.84826,8.12024 l 0,0.44776 c -1e-5,6.68328 2.46434,10.02491 7.39306,10.0249 l 15.23047,0 z"
         id="path3876"
         inkscape:connector-curvature="0"
         style="fill:#006680;stroke:#55ddff;stroke-width:2.4000001;stroke-miterlimit:4;stroke-dasharray:none" />
      <path
         d="m 595.17993,361.76184 0,-14.61523 -14.61694,0 0,14.61523 -7.83911,0 0,-36.84741 7.83911,0 0,14.39136 14.61694,0 0,-14.39136 7.83911,0 0,36.84741 z"
         id="path3878"
         inkscape:connector-curvature="0"
         style="fill:#006680;stroke:#55ddff;stroke-width:2.4000001;stroke-miterlimit:4;stroke-dasharray:none" />
    </g>
    <g
       style="font-size:56px;font-style:normal;font-variant:normal;font-weight:normal;font-stretch:normal;line-height:125%;letter-spacing:0px;word-spacing:0px;fill:#006680;fill-opacity:1;stroke:#55ddff;stroke-width:2.4000001;stroke-miterlimit:4;stroke-dasharray:none;filter:url(#filter3921);font-family:Nasalization;-inkscape-font-specification:Nasalization"
       id="text3892"
       transform="translate(17,-77)"
       inkscape:export-filename="D:\Crash20140412\Documenten\Delphi\nmg2editor\nmg2_editor_FMX\DXE10\Img\Initializing.png"
       inkscape:export-xdpi="89"
       inkscape:export-ydpi="89">
      <path
         d="m 200.52075,451.76184 0,-36.84741 7.83911,0 0,36.84741 z"
         style="fill:#006680;stroke:#55ddff;stroke-width:2.4000001;stroke-miterlimit:4;stroke-dasharray:none"
         id="path3897"
         inkscape:connector-curvature="0" />
      <path
         d="m 250.44189,441.96252 c -4e-5,1.41847 -0.25211,2.71559 -0.75622,3.89136 -0.50419,1.17579 -1.20402,2.1744 -2.09949,2.99585 -0.89554,0.82145 -1.94998,1.45634 -3.16333,1.90466 -1.21341,0.44833 -2.5111,0.67249 -3.89306,0.67249 -2.01549,0 -3.83528,-0.63489 -5.45936,-1.90466 -1.62412,-1.26978 -2.8093,-3.02462 -3.55554,-5.26453 l -6.77612,-20.15918 c -0.14927,-0.93308 -0.57879,-1.39963 -1.28857,-1.39966 -1.19517,3e-5 -1.79274,0.74629 -1.79273,2.23877 l 0,26.82422 -8.23047,0 0,-27.49585 c 0,-1.41843 0.25179,-2.71555 0.75537,-3.89136 0.50358,-1.17575 1.20341,-2.17436 2.09949,-2.99585 0.89607,-0.82141 1.9508,-1.4563 3.16418,-1.90466 1.21337,-0.44829 2.51049,-0.67245 3.89136,-0.67248 1.97899,3e-5 3.79934,0.63492 5.46106,1.90466 1.66168,1.26981 2.84686,3.02465 3.55554,5.26453 l -0.0564,0 6.83252,20.15917 c 0.14922,0.93312 0.57874,1.39967 1.28857,1.39966 1.19398,1e-5 1.79099,-0.74625 1.79102,-2.23877 l 0,-26.82422 8.23217,0 z"
         style="fill:#006680;stroke:#55ddff;stroke-width:2.4000001;stroke-miterlimit:4;stroke-dasharray:none"
         id="path3899"
         inkscape:connector-curvature="0" />
      <path
         d="m 255.53638,451.76184 0,-36.84741 7.83911,0 0,36.84741 z"
         style="fill:#006680;stroke:#55ddff;stroke-width:2.4000001;stroke-miterlimit:4;stroke-dasharray:none"
         id="path3901"
         inkscape:connector-curvature="0" />
      <path
         d="m 283.84229,422.75354 0,29.0083 -7.84083,0 0,-29.0083 -8.67993,0 0,-7.83911 24.69654,0 0,7.83911 z"
         style="fill:#006680;stroke:#55ddff;stroke-width:2.4000001;stroke-miterlimit:4;stroke-dasharray:none"
         id="path3903"
         inkscape:connector-curvature="0" />
      <path
         d="m 295.89575,451.76184 0,-36.84741 7.83911,0 0,36.84741 z"
         style="fill:#006680;stroke:#55ddff;stroke-width:2.4000001;stroke-miterlimit:4;stroke-dasharray:none"
         id="path3905"
         inkscape:connector-curvature="0" />
      <path
         d="m 325.93799,422.80994 c -0.18687,2e-5 -0.35492,0.18687 -0.50415,0.56054 l -5.54395,15.51245 12.20728,0 -5.32007,-15.23217 c -0.33612,-0.56052 -0.5412,-0.8408 -0.61523,-0.84082 z m 8.90381,23.91211 -17.69654,0 -1.67993,5.03979 -8.34326,0 11.31177,-31.75122 c 0.63459,-1.75453 1.6238,-3.04253 2.96765,-3.86401 1.34381,-0.82142 2.89301,-1.23215 4.64758,-1.23218 1.79214,3e-5 3.35073,0.41076 4.67578,1.23218 1.32501,0.82148 2.3054,2.10948 2.94117,3.86401 l 11.31176,31.75122 -8.28857,0 z"
         style="fill:#006680;stroke:#55ddff;stroke-width:2.4000001;stroke-miterlimit:4;stroke-dasharray:none"
         id="path3907"
         inkscape:connector-curvature="0" />
      <path
         d="m 364.63794,451.76184 c -2.72528,0 -5.10532,-0.37341 -7.14014,-1.12024 -2.03484,-0.74682 -3.73357,-1.82007 -5.09619,-3.21973 -1.36263,-1.39965 -2.38916,-3.08898 -3.07959,-5.06799 -0.69043,-1.97899 -1.03565,-4.2001 -1.03564,-6.66333 l 0,-20.77612 7.83911,0 0,20.83252 c -1e-5,2.57602 0.72801,4.58265 2.18408,6.0199 1.45604,1.43726 3.50967,2.15589 6.16089,2.15588 l 11.53564,0 0,7.83911 z"
         style="fill:#006680;stroke:#55ddff;stroke-width:2.4000001;stroke-miterlimit:4;stroke-dasharray:none"
         id="path3909"
         inkscape:connector-curvature="0" />
      <path
         d="m 380.44263,451.76184 0,-36.84741 7.83911,0 0,36.84741 z"
         style="fill:#006680;stroke:#55ddff;stroke-width:2.4000001;stroke-miterlimit:4;stroke-dasharray:none"
         id="path3911"
         inkscape:connector-curvature="0" />
      <path
         d="m 418.60425,425.61096 c 0.48532,-0.18682 0.84933,-0.4671 1.09204,-0.84082 0.24265,-0.37367 0.36398,-0.70977 0.36401,-1.0083 -3e-5,-0.29847 -0.10285,-0.54115 -0.30847,-0.72803 -0.20568,-0.18682 -0.5694,-0.28024 -1.09119,-0.28027 l -24.30517,0 0,-7.83911 24.13599,0 c 3.13652,3e-5 5.47954,0.8212 7.02905,2.4635 1.54944,1.64237 2.32418,3.78913 2.32422,6.44031 -4e-5,0.63463 -0.0562,1.27863 -0.16834,1.932 -0.11226,0.65343 -0.35493,1.36266 -0.72803,2.12769 -0.37316,0.76508 -0.97985,1.60504 -1.82006,2.5199 -0.84029,0.91489 -1.98844,1.67083 -3.44446,2.26782 l -19.32007,8.40137 c -0.52296,0.22331 -0.90577,0.52153 -1.14844,0.89465 -0.24268,0.37314 -0.36402,0.72775 -0.36401,1.06384 l 0,0.0564 c 0.26203,0.56055 0.74738,0.84083 1.45605,0.84082 l 24.69654,0 0,7.83911 -24.52735,0 c -3.13656,0 -5.48869,-0.82117 -7.05639,-2.4635 -1.56772,-1.64233 -2.35157,-3.7703 -2.35157,-6.38391 0,-0.70979 0.0746,-1.46602 0.22388,-2.26868 0.14925,-0.80264 0.44775,-1.59589 0.89551,-2.37976 0.44775,-0.78384 1.07295,-1.54918 1.87561,-2.29602 0.80265,-0.74681 1.85737,-1.39993 3.16418,-1.95935 z"
         style="fill:#006680;stroke:#55ddff;stroke-width:2.4000001;stroke-miterlimit:4;stroke-dasharray:none"
         id="path3913"
         inkscape:connector-curvature="0" />
      <path
         d="m 432.6145,451.76184 0,-36.84741 7.83911,0 0,36.84741 z"
         style="fill:#006680;stroke:#55ddff;stroke-width:2.4000001;stroke-miterlimit:4;stroke-dasharray:none"
         id="path3915"
         inkscape:connector-curvature="0" />
      <path
         d="m 482.53564,441.96252 c -4e-5,1.41847 -0.25211,2.71559 -0.75622,3.89136 -0.50419,1.17579 -1.20402,2.1744 -2.09949,2.99585 -0.89554,0.82145 -1.94998,1.45634 -3.16333,1.90466 -1.21341,0.44833 -2.5111,0.67249 -3.89306,0.67249 -2.01549,0 -3.83528,-0.63489 -5.45936,-1.90466 -1.62412,-1.26978 -2.8093,-3.02462 -3.55554,-5.26453 l -6.77612,-20.15918 c -0.14927,-0.93308 -0.57879,-1.39963 -1.28857,-1.39966 -1.19517,3e-5 -1.79274,0.74629 -1.79273,2.23877 l 0,26.82422 -8.23047,0 0,-27.49585 c 0,-1.41843 0.25179,-2.71555 0.75537,-3.89136 0.50358,-1.17575 1.20341,-2.17436 2.09949,-2.99585 0.89607,-0.82141 1.9508,-1.4563 3.16418,-1.90466 1.21337,-0.44829 2.51049,-0.67245 3.89136,-0.67248 1.97899,3e-5 3.79934,0.63492 5.46106,1.90466 1.66168,1.26981 2.84686,3.02465 3.55554,5.26453 l -0.0564,0 6.83252,20.15917 c 0.14922,0.93312 0.57874,1.39967 1.28857,1.39966 1.19398,1e-5 1.79099,-0.74625 1.79102,-2.23877 l 0,-26.82422 8.23217,0 z"
         style="fill:#006680;stroke:#55ddff;stroke-width:2.4000001;stroke-miterlimit:4;stroke-dasharray:none"
         id="path3917"
         inkscape:connector-curvature="0" />
      <path
         d="m 503.92529,451.76184 c -11.19955,0 -16.79932,-6.12272 -16.79931,-18.36816 l 0,-0.16748 c 0.11165,-12.20782 5.73021,-18.31174 16.85571,-18.31177 l 13.66333,0 0,7.83911 -15.23218,0 c -2.50083,3e-5 -4.36732,0.85879 -5.59949,2.57629 -1.23218,1.71756 -1.84827,4.4243 -1.84826,8.12024 l 0,0.44776 c -10e-6,6.68328 2.46434,10.02491 7.39306,10.0249 l 7.39136,-0.0564 c 0.82143,10e-6 1.52154,-0.33609 2.10034,-1.0083 0.57875,-0.67219 0.86814,-1.45604 0.86817,-2.35156 -3e-5,-0.89664 -0.28002,-1.68077 -0.83997,-2.35242 -0.56,-0.67162 -1.26951,-1.00743 -2.12854,-1.00744 l -6.43945,0 0,-7.84082 6.71973,0 c 1.49248,2e-5 2.87362,0.3082 4.14343,0.92456 1.26974,0.61639 2.38058,1.43784 3.33252,2.46435 0.95187,1.02655 1.69841,2.19321 2.23962,3.5 0.54114,1.30682 0.81173,2.65065 0.81177,4.0315 l 0,0.56054 c -4e-5,1.38087 -0.28942,2.7341 -0.86817,4.0597 -0.57881,1.3256 -1.35354,2.50167 -2.32421,3.52819 -0.97074,1.02653 -2.09069,1.8477 -3.35987,2.4635 -1.26923,0.61581 -2.61306,0.92371 -4.03149,0.92371 z"
         style="fill:#006680;stroke:#55ddff;stroke-width:2.4000001;stroke-miterlimit:4;stroke-dasharray:none"
         id="path3919"
         inkscape:connector-curvature="0" />
    </g>
  </g>
</svg>
